<mxfile host="Electron" modified="2023-04-18T11:41:13.324Z" agent="Mozilla/5.0 (Windows NT 10.0; Win64; x64) AppleWebKit/537.36 (KHTML, like Gecko) draw.io/21.1.2 Chrome/106.0.5249.199 Electron/21.4.3 Safari/537.36" etag="pfUnEz0LX__lxlnJ9Ah3" version="21.1.2" type="device">
  <diagram name="Page-1" id="VpbS4BRhwpMfOp-4mWex">
    <mxGraphModel dx="1050" dy="621" grid="1" gridSize="10" guides="1" tooltips="1" connect="1" arrows="1" fold="1" page="1" pageScale="1" pageWidth="827" pageHeight="1169" math="0" shadow="0">
      <root>
        <mxCell id="0" />
        <mxCell id="1" parent="0" />
        <mxCell id="NewK3N6sCfu_BiJ-_8Ne-18" style="edgeStyle=orthogonalEdgeStyle;rounded=0;orthogonalLoop=1;jettySize=auto;html=1;entryX=0;entryY=0.5;entryDx=0;entryDy=0;" edge="1" parent="1" source="NewK3N6sCfu_BiJ-_8Ne-1" target="NewK3N6sCfu_BiJ-_8Ne-3">
          <mxGeometry relative="1" as="geometry" />
        </mxCell>
        <mxCell id="NewK3N6sCfu_BiJ-_8Ne-1" value="" style="ellipse;whiteSpace=wrap;html=1;aspect=fixed;" vertex="1" parent="1">
          <mxGeometry x="100" y="265" width="80" height="80" as="geometry" />
        </mxCell>
        <mxCell id="NewK3N6sCfu_BiJ-_8Ne-2" value="Sensor" style="text;html=1;strokeColor=none;fillColor=none;align=center;verticalAlign=middle;whiteSpace=wrap;rounded=0;" vertex="1" parent="1">
          <mxGeometry x="110" y="290" width="60" height="30" as="geometry" />
        </mxCell>
        <mxCell id="NewK3N6sCfu_BiJ-_8Ne-20" style="edgeStyle=orthogonalEdgeStyle;rounded=0;orthogonalLoop=1;jettySize=auto;html=1;entryX=0.5;entryY=0;entryDx=0;entryDy=0;" edge="1" parent="1" source="NewK3N6sCfu_BiJ-_8Ne-3" target="NewK3N6sCfu_BiJ-_8Ne-11">
          <mxGeometry relative="1" as="geometry" />
        </mxCell>
        <mxCell id="NewK3N6sCfu_BiJ-_8Ne-27" style="edgeStyle=orthogonalEdgeStyle;rounded=0;orthogonalLoop=1;jettySize=auto;html=1;entryX=0.5;entryY=1;entryDx=0;entryDy=0;" edge="1" parent="1" source="NewK3N6sCfu_BiJ-_8Ne-3" target="NewK3N6sCfu_BiJ-_8Ne-25">
          <mxGeometry relative="1" as="geometry" />
        </mxCell>
        <mxCell id="NewK3N6sCfu_BiJ-_8Ne-3" value="" style="ellipse;whiteSpace=wrap;html=1;aspect=fixed;" vertex="1" parent="1">
          <mxGeometry x="245" y="260" width="90" height="90" as="geometry" />
        </mxCell>
        <mxCell id="NewK3N6sCfu_BiJ-_8Ne-4" value="MicroKontroller" style="text;html=1;strokeColor=none;fillColor=none;align=center;verticalAlign=middle;whiteSpace=wrap;rounded=0;" vertex="1" parent="1">
          <mxGeometry x="260" y="290" width="60" height="30" as="geometry" />
        </mxCell>
        <mxCell id="NewK3N6sCfu_BiJ-_8Ne-24" style="edgeStyle=orthogonalEdgeStyle;rounded=0;orthogonalLoop=1;jettySize=auto;html=1;entryX=0;entryY=0.5;entryDx=0;entryDy=0;" edge="1" parent="1" source="NewK3N6sCfu_BiJ-_8Ne-6" target="NewK3N6sCfu_BiJ-_8Ne-7">
          <mxGeometry relative="1" as="geometry" />
        </mxCell>
        <mxCell id="NewK3N6sCfu_BiJ-_8Ne-6" value="" style="ellipse;whiteSpace=wrap;html=1;aspect=fixed;" vertex="1" parent="1">
          <mxGeometry x="250" y="20" width="80" height="80" as="geometry" />
        </mxCell>
        <mxCell id="NewK3N6sCfu_BiJ-_8Ne-22" style="edgeStyle=orthogonalEdgeStyle;rounded=0;orthogonalLoop=1;jettySize=auto;html=1;entryX=0;entryY=0.5;entryDx=0;entryDy=0;" edge="1" parent="1" source="NewK3N6sCfu_BiJ-_8Ne-7" target="NewK3N6sCfu_BiJ-_8Ne-15">
          <mxGeometry relative="1" as="geometry" />
        </mxCell>
        <mxCell id="NewK3N6sCfu_BiJ-_8Ne-7" value="" style="ellipse;whiteSpace=wrap;html=1;aspect=fixed;" vertex="1" parent="1">
          <mxGeometry x="430" y="80" width="80" height="80" as="geometry" />
        </mxCell>
        <mxCell id="NewK3N6sCfu_BiJ-_8Ne-10" value="webserver" style="text;html=1;strokeColor=none;fillColor=none;align=center;verticalAlign=middle;whiteSpace=wrap;rounded=0;" vertex="1" parent="1">
          <mxGeometry x="260" y="45" width="60" height="30" as="geometry" />
        </mxCell>
        <mxCell id="NewK3N6sCfu_BiJ-_8Ne-11" value="" style="ellipse;whiteSpace=wrap;html=1;aspect=fixed;" vertex="1" parent="1">
          <mxGeometry x="250" y="375" width="80" height="80" as="geometry" />
        </mxCell>
        <mxCell id="NewK3N6sCfu_BiJ-_8Ne-12" value="Led" style="text;html=1;strokeColor=none;fillColor=none;align=center;verticalAlign=middle;whiteSpace=wrap;rounded=0;" vertex="1" parent="1">
          <mxGeometry x="260" y="400" width="60" height="30" as="geometry" />
        </mxCell>
        <mxCell id="NewK3N6sCfu_BiJ-_8Ne-14" value="Discord Api" style="text;html=1;strokeColor=none;fillColor=none;align=center;verticalAlign=middle;whiteSpace=wrap;rounded=0;" vertex="1" parent="1">
          <mxGeometry x="440" y="105" width="60" height="30" as="geometry" />
        </mxCell>
        <mxCell id="NewK3N6sCfu_BiJ-_8Ne-15" value="" style="ellipse;whiteSpace=wrap;html=1;aspect=fixed;" vertex="1" parent="1">
          <mxGeometry x="550" y="80" width="80" height="80" as="geometry" />
        </mxCell>
        <mxCell id="NewK3N6sCfu_BiJ-_8Ne-17" value="Discord" style="text;html=1;strokeColor=none;fillColor=none;align=center;verticalAlign=middle;whiteSpace=wrap;rounded=0;" vertex="1" parent="1">
          <mxGeometry x="560" y="105" width="60" height="30" as="geometry" />
        </mxCell>
        <mxCell id="NewK3N6sCfu_BiJ-_8Ne-28" style="edgeStyle=orthogonalEdgeStyle;rounded=0;orthogonalLoop=1;jettySize=auto;html=1;entryX=0.5;entryY=1;entryDx=0;entryDy=0;" edge="1" parent="1" source="NewK3N6sCfu_BiJ-_8Ne-25" target="NewK3N6sCfu_BiJ-_8Ne-6">
          <mxGeometry relative="1" as="geometry" />
        </mxCell>
        <mxCell id="NewK3N6sCfu_BiJ-_8Ne-25" value="" style="ellipse;whiteSpace=wrap;html=1;aspect=fixed;" vertex="1" parent="1">
          <mxGeometry x="250" y="135" width="80" height="80" as="geometry" />
        </mxCell>
        <mxCell id="NewK3N6sCfu_BiJ-_8Ne-26" value="Api" style="text;html=1;strokeColor=none;fillColor=none;align=center;verticalAlign=middle;whiteSpace=wrap;rounded=0;" vertex="1" parent="1">
          <mxGeometry x="260" y="160" width="60" height="30" as="geometry" />
        </mxCell>
      </root>
    </mxGraphModel>
  </diagram>
</mxfile>
